<?xml version="1.0" encoding="utf-8"?>
<!-- Generator: Adobe Illustrator 23.0.6, SVG Export Plug-In . SVG Version: 6.00 Build 0)  -->
<svg version="1.1" id="Capa_1" xmlns="http://www.w3.org/2000/svg" xmlns:xlink="http://www.w3.org/1999/xlink" x="0px" y="0px"
	 viewBox="0 0 79 551.7" style="enable-background:new 0 0 79 551.7;" xml:space="preserve">
<style type="text/css">
	.st0{fill:#008655;}
</style>
<path class="st0" d="M18.8,51.5c0-11.4,9.3-20.7,20.7-20.7s20.7,9.3,20.7,20.7s-9.3,20.7-20.7,20.7S18.8,62.9,18.8,51.5 M13.5,51.5
	c0,14.4,11.6,26,26,26s26-11.6,26-26s-11.6-26-26-26S13.5,37.1,13.5,51.5L13.5,51.5z"/>
<g>
	<rect x="37.5" y="77.3" class="st0" width="4" height="98"/>
</g>
<g>
	<rect x="37.5" y="226.8" class="st0" width="4" height="98"/>
</g>
<g>
	<rect x="37.5" y="376.5" class="st0" width="4" height="98"/>
</g>
<path class="st0" d="M18.8,201.2c0-11.4,9.3-20.7,20.7-20.7s20.7,9.3,20.7,20.7s-9.3,20.7-20.7,20.7S18.8,212.6,18.8,201.2
	 M13.5,201.2c0,14.4,11.6,26,26,26s26-11.6,26-26s-11.6-26-26-26S13.5,186.8,13.5,201.2L13.5,201.2z"/>
<path class="st0" d="M18.8,350.7c0-11.4,9.3-20.7,20.7-20.7s20.7,9.3,20.7,20.7s-9.3,20.7-20.7,20.7S18.8,362.1,18.8,350.7
	 M13.5,350.7c0,14.4,11.6,26,26,26s26-11.6,26-26s-11.6-26-26-26S13.5,336.3,13.5,350.7L13.5,350.7z"/>
<path class="st0" d="M18.8,499.8c0-11.4,9.3-20.7,20.7-20.7s20.7,9.3,20.7,20.7s-9.3,20.7-20.7,20.7S18.8,511.2,18.8,499.8
	 M13.5,499.8c0,14.4,11.6,26,26,26s26-11.6,26-26c0-14.4-11.6-26-26-26S13.5,485.4,13.5,499.8L13.5,499.8z"/>
</svg>
